<svg width="30" height="29" viewBox="0 0 30 29" fill="none" xmlns="http://www.w3.org/2000/svg">
<path d="M15.0001 0C6.71687 0 0 6.64758 0 14.8481C0 21.4084 4.29799 26.9741 10.258 28.9375C11.0077 29.0749 11.2829 28.6154 11.2829 28.2232C11.2829 27.8691 11.269 26.6995 11.2625 25.4588C7.08946 26.357 6.2089 23.7069 6.2089 23.7069C5.52656 21.9907 4.54341 21.5343 4.54341 21.5343C3.18245 20.6128 4.64599 20.6317 4.64599 20.6317C6.15227 20.7364 6.94539 22.1618 6.94539 22.1618C8.28325 24.4317 10.4545 23.7755 11.3105 23.3961C11.4451 22.4364 11.8338 21.7814 12.2628 21.4106C8.93107 21.0352 5.42869 19.762 5.42869 14.0726C5.42869 12.4515 6.01466 11.127 6.97421 10.0872C6.81846 9.71319 6.30503 8.20301 7.11952 6.15779C7.11952 6.15779 8.37913 5.75873 11.2456 7.67978C12.4421 7.35079 13.7254 7.18581 15.0001 7.18015C16.2749 7.18581 17.5591 7.35079 18.7579 7.67978C21.6209 5.75873 22.8787 6.15779 22.8787 6.15779C23.6952 8.20301 23.1815 9.71319 23.0258 10.0872C23.9876 11.127 24.5696 12.4515 24.5696 14.0726C24.5696 19.7755 21.0605 21.0312 17.7203 21.3988C18.2583 21.8596 18.7377 22.7632 18.7377 24.1485C18.7377 26.1352 18.7203 27.7341 18.7203 28.2232C18.7203 28.6183 18.9904 29.0813 19.7507 28.9355C25.7075 26.9699 30 21.4062 30 14.8481C30 6.64758 23.2841 0 15.0001 0ZM5.61803 21.1515C5.585 21.2252 5.46775 21.2474 5.36094 21.1967C5.25215 21.1483 5.19104 21.0477 5.22631 20.9737C5.25861 20.8977 5.3761 20.8766 5.48465 20.9275C5.59369 20.9759 5.65579 21.0775 5.61803 21.1515ZM6.35587 21.8032C6.28434 21.8688 6.14449 21.8383 6.0496 21.7346C5.95149 21.631 5.9331 21.4926 6.00564 21.426C6.07941 21.3603 6.21503 21.3911 6.3134 21.4946C6.41151 21.5993 6.43064 21.7368 6.35587 21.8032ZM6.86206 22.637C6.77015 22.7002 6.61987 22.6409 6.52697 22.5089C6.43507 22.3768 6.43507 22.2185 6.52896 22.1551C6.62211 22.0916 6.77015 22.1487 6.8643 22.2797C6.95595 22.414 6.95595 22.5723 6.86206 22.637ZM7.71813 23.6027C7.63591 23.6924 7.46079 23.6683 7.33262 23.5459C7.20146 23.4261 7.16495 23.2562 7.24742 23.1665C7.33063 23.0765 7.50674 23.1018 7.63591 23.2233C7.76607 23.3428 7.80581 23.5139 7.71813 23.6027ZM8.82451 23.9287C8.78825 24.045 8.61959 24.0978 8.44968 24.0484C8.28003 23.9975 8.169 23.8613 8.20328 23.7438C8.23855 23.6267 8.40795 23.5716 8.5791 23.6245C8.7485 23.6752 8.85979 23.8104 8.82451 23.9287ZM10.0836 24.0669C10.0878 24.1894 9.94378 24.2909 9.76543 24.2932C9.58609 24.2971 9.44103 24.198 9.43904 24.0775C9.43904 23.9538 9.57988 23.8533 9.75922 23.8503C9.93757 23.8469 10.0836 23.9452 10.0836 24.0669ZM11.3206 24.02C11.3419 24.1395 11.218 24.2622 11.0409 24.2949C10.8667 24.3264 10.7055 24.2526 10.6834 24.1341C10.6618 24.0116 10.788 23.889 10.9619 23.8572C11.1392 23.8267 11.298 23.8985 11.3206 24.02Z" fill="#BCB8B8"/>
</svg>
