<svg width="29" height="29" viewBox="0 0 29 29" fill="none" xmlns="http://www.w3.org/2000/svg">
<path d="M23.78 2.32001H5.22001C3.61921 2.32001 2.32001 3.61921 2.32001 5.22001V23.78C2.32001 25.3808 3.61921 26.68 5.22001 26.68H23.78C25.3808 26.68 26.68 25.3808 26.68 23.78V5.22001C26.68 3.61921 25.3808 2.32001 23.78 2.32001ZM9.86001 11.6V22.62H6.38001V11.6H9.86001ZM6.38001 8.39261C6.38001 7.58061 7.07601 6.96001 8.12001 6.96001C9.16401 6.96001 9.81941 7.58061 9.86001 8.39261C9.86001 9.20461 9.21041 9.86001 8.12001 9.86001C7.07601 9.86001 6.38001 9.20461 6.38001 8.39261ZM22.62 22.62H19.14C19.14 22.62 19.14 17.2492 19.14 16.82C19.14 15.66 18.56 14.5 17.11 14.4768H17.0636C15.66 14.4768 15.08 15.6716 15.08 16.82C15.08 17.3478 15.08 22.62 15.08 22.62H11.6V11.6H15.08V13.0848C15.08 13.0848 16.1994 11.6 18.4498 11.6C20.7524 11.6 22.62 13.1834 22.62 16.3908V22.62Z" fill="#BCB8B8"/>
</svg>
